{
	"asset":{
		"generator":"Khronos glTF Blender I/O v4.5.48",
		"version":"2.0"
	},
	"scene":0,
	"scenes":[
		{
			"name":"Scene",
			"nodes":[
				11
			]
		}
	],
	"nodes":[
		{
			"name":"head",
			"rotation":[
				-0.005532040726393461,
				-1.3738742055566743e-16,
				-1.353762467015305e-16,
				0.9999847412109375
			],
			"scale":[
				0.9999999403953552,
				0.9999999403953552,
				0.9999999403953552
			],
			"translation":[
				-1.8626450382086546e-09,
				0.817287266254425,
				2.3283064365386963e-10
			]
		},
		{
			"name":"footR",
			"rotation":[
				0.9997532367706299,
				2.6481392634281065e-09,
				1.191798872923755e-07,
				0.022214189171791077
			],
			"scale":[
				0.9999999403953552,
				1.0000001192092896,
				1.000001072883606
			],
			"translation":[
				0.003038370981812477,
				-0.14184629917144775,
				0.30794915556907654
			]
		},
		{
			"name":"footL",
			"rotation":[
				0.9999271631240845,
				2.9748092824640016e-19,
				2.4647465970656838e-17,
				0.012068638578057289
			],
			"scale":[
				0.9999999403953552,
				1,
				1.000000238418579
			],
			"translation":[
				0.0040957629680633545,
				-0.14286768436431885,
				-0.31458091735839844
			]
		},
		{
			"name":"handL",
			"rotation":[
				0.019651029258966446,
				8.618069114163518e-05,
				-0.04979633539915085,
				0.9985660910606384
			],
			"scale":[
				1,
				1,
				1.0000001192092896
			],
			"translation":[
				2.287561073899269e-08,
				0.3475899398326874,
				2.3607572074979544e-07
			]
		},
		{
			"children":[
				3
			],
			"name":"armL1",
			"rotation":[
				0.00704693328589201,
				-0.00010918629413936287,
				0.020118355751037598,
				0.9997727870941162
			],
			"scale":[
				1,
				0.9999999403953552,
				1
			],
			"translation":[
				-1.4901161193847656e-08,
				0.2660849988460541,
				-1.210719347000122e-07
			]
		},
		{
			"children":[
				4
			],
			"name":"armL0",
			"rotation":[
				-0.723438560962677,
				1.79423796299714e-17,
				-1.880130081698931e-17,
				0.6903887987136841
			],
			"scale":[
				0.9999999403953552,
				1,
				1
			],
			"translation":[
				0.16425710916519165,
				0.6088458895683289,
				-0.4960062503814697
			]
		},
		{
			"name":"handR",
			"rotation":[
				0.011307140812277794,
				1.1920165832179919e-07,
				1.3479162230822794e-09,
				0.9999361038208008
			],
			"scale":[
				0.9999999403953552,
				0.9999999403953552,
				1
			],
			"translation":[
				-1.4901161193847656e-08,
				0.38395577669143677,
				-3.725290298461914e-08
			]
		},
		{
			"children":[
				6
			],
			"name":"armR1",
			"rotation":[
				-0.007859856821596622,
				-1.9604118478960814e-19,
				2.4941844661413435e-17,
				0.9999691247940063
			],
			"scale":[
				0.9999999403953552,
				1,
				1
			],
			"translation":[
				-1.4901161193847656e-08,
				0.22783173620700836,
				-5.657784640789032e-08
			]
		},
		{
			"children":[
				7
			],
			"name":"armR0",
			"rotation":[
				0.7026592493057251,
				-1.7895298163866105e-17,
				-1.767228034455446e-17,
				0.7115265727043152
			],
			"scale":[
				0.9999999403953552,
				1,
				1
			],
			"translation":[
				0.14374388754367828,
				0.6093869209289551,
				0.49970385432243347
			]
		},
		{
			"children":[
				0,
				1,
				2,
				5,
				8
			],
			"name":"root",
			"rotation":[
				0.008389069698750973,
				2.5046807263701514e-17,
				2.5046807263701514e-17,
				0.9999648332595825
			],
			"scale":[
				0.9999999403953552,
				0.9999999403953552,
				0.9999999403953552
			],
			"translation":[
				0,
				0,
				9.313225746154785e-10
			]
		},
		{
			"mesh":0,
			"name":"Sphere",
			"skin":0
		},
		{
			"children":[
				10,
				9
			],
			"name":"Armature",
			"scale":[
				0.40098249912261963,
				0.40098249912261963,
				0.40098249912261963
			],
			"translation":[
				0.008436793461441994,
				0.27241772413253784,
				0.005750290583819151
			]
		}
	],
	"animations":[
		{
			"channels":[
				{
					"sampler":0,
					"target":{
						"node":9,
						"path":"translation"
					}
				},
				{
					"sampler":1,
					"target":{
						"node":9,
						"path":"rotation"
					}
				},
				{
					"sampler":2,
					"target":{
						"node":9,
						"path":"scale"
					}
				},
				{
					"sampler":3,
					"target":{
						"node":0,
						"path":"translation"
					}
				},
				{
					"sampler":4,
					"target":{
						"node":0,
						"path":"rotation"
					}
				},
				{
					"sampler":5,
					"target":{
						"node":0,
						"path":"scale"
					}
				},
				{
					"sampler":6,
					"target":{
						"node":1,
						"path":"translation"
					}
				},
				{
					"sampler":7,
					"target":{
						"node":1,
						"path":"rotation"
					}
				},
				{
					"sampler":8,
					"target":{
						"node":1,
						"path":"scale"
					}
				},
				{
					"sampler":9,
					"target":{
						"node":2,
						"path":"translation"
					}
				},
				{
					"sampler":10,
					"target":{
						"node":2,
						"path":"rotation"
					}
				},
				{
					"sampler":11,
					"target":{
						"node":2,
						"path":"scale"
					}
				},
				{
					"sampler":12,
					"target":{
						"node":5,
						"path":"translation"
					}
				},
				{
					"sampler":13,
					"target":{
						"node":5,
						"path":"rotation"
					}
				},
				{
					"sampler":14,
					"target":{
						"node":5,
						"path":"scale"
					}
				},
				{
					"sampler":15,
					"target":{
						"node":4,
						"path":"translation"
					}
				},
				{
					"sampler":16,
					"target":{
						"node":4,
						"path":"rotation"
					}
				},
				{
					"sampler":17,
					"target":{
						"node":4,
						"path":"scale"
					}
				},
				{
					"sampler":18,
					"target":{
						"node":3,
						"path":"translation"
					}
				},
				{
					"sampler":19,
					"target":{
						"node":3,
						"path":"rotation"
					}
				},
				{
					"sampler":20,
					"target":{
						"node":3,
						"path":"scale"
					}
				},
				{
					"sampler":21,
					"target":{
						"node":8,
						"path":"translation"
					}
				},
				{
					"sampler":22,
					"target":{
						"node":8,
						"path":"rotation"
					}
				},
				{
					"sampler":23,
					"target":{
						"node":8,
						"path":"scale"
					}
				},
				{
					"sampler":24,
					"target":{
						"node":7,
						"path":"translation"
					}
				},
				{
					"sampler":25,
					"target":{
						"node":7,
						"path":"rotation"
					}
				},
				{
					"sampler":26,
					"target":{
						"node":7,
						"path":"scale"
					}
				},
				{
					"sampler":27,
					"target":{
						"node":6,
						"path":"translation"
					}
				},
				{
					"sampler":28,
					"target":{
						"node":6,
						"path":"rotation"
					}
				},
				{
					"sampler":29,
					"target":{
						"node":6,
						"path":"scale"
					}
				}
			],
			"name":"test",
			"samplers":[
				{
					"input":7,
					"interpolation":"LINEAR",
					"output":8
				},
				{
					"input":7,
					"interpolation":"LINEAR",
					"output":9
				},
				{
					"input":10,
					"interpolation":"STEP",
					"output":11
				},
				{
					"input":10,
					"interpolation":"LINEAR",
					"output":12
				},
				{
					"input":7,
					"interpolation":"LINEAR",
					"output":13
				},
				{
					"input":10,
					"interpolation":"STEP",
					"output":14
				},
				{
					"input":10,
					"interpolation":"LINEAR",
					"output":15
				},
				{
					"input":7,
					"interpolation":"LINEAR",
					"output":16
				},
				{
					"input":10,
					"interpolation":"STEP",
					"output":17
				},
				{
					"input":10,
					"interpolation":"LINEAR",
					"output":18
				},
				{
					"input":7,
					"interpolation":"LINEAR",
					"output":19
				},
				{
					"input":10,
					"interpolation":"STEP",
					"output":20
				},
				{
					"input":10,
					"interpolation":"LINEAR",
					"output":21
				},
				{
					"input":7,
					"interpolation":"LINEAR",
					"output":22
				},
				{
					"input":10,
					"interpolation":"LINEAR",
					"output":23
				},
				{
					"input":10,
					"interpolation":"LINEAR",
					"output":24
				},
				{
					"input":7,
					"interpolation":"LINEAR",
					"output":25
				},
				{
					"input":10,
					"interpolation":"LINEAR",
					"output":26
				},
				{
					"input":10,
					"interpolation":"LINEAR",
					"output":27
				},
				{
					"input":10,
					"interpolation":"LINEAR",
					"output":28
				},
				{
					"input":10,
					"interpolation":"LINEAR",
					"output":29
				},
				{
					"input":10,
					"interpolation":"LINEAR",
					"output":30
				},
				{
					"input":7,
					"interpolation":"LINEAR",
					"output":31
				},
				{
					"input":10,
					"interpolation":"LINEAR",
					"output":32
				},
				{
					"input":10,
					"interpolation":"LINEAR",
					"output":33
				},
				{
					"input":7,
					"interpolation":"LINEAR",
					"output":34
				},
				{
					"input":10,
					"interpolation":"LINEAR",
					"output":35
				},
				{
					"input":10,
					"interpolation":"LINEAR",
					"output":36
				},
				{
					"input":10,
					"interpolation":"LINEAR",
					"output":37
				},
				{
					"input":10,
					"interpolation":"STEP",
					"output":38
				}
			]
		}
	],
	"materials":[
		{
			"doubleSided":true,
			"name":"Material",
			"pbrMetallicRoughness":{
				"baseColorTexture":{
					"index":0
				},
				"metallicFactor":0,
				"roughnessFactor":0.5
			}
		}
	],
	"meshes":[
		{
			"name":"Sphere",
			"primitives":[
				{
					"attributes":{
						"POSITION":0,
						"NORMAL":1,
						"TEXCOORD_0":2,
						"JOINTS_0":3,
						"WEIGHTS_0":4
					},
					"indices":5,
					"material":0
				}
			]
		}
	],
	"textures":[
		{
			"sampler":0,
			"source":0
		}
	],
	"images":[
		{
			"mimeType":"image/png",
			"name":"Rabit",
			"uri":"Rabit.png"
		}
	],
	"skins":[
		{
			"inverseBindMatrices":6,
			"joints":[
				9,
				0,
				1,
				2,
				5,
				4,
				3,
				8,
				7,
				6
			],
			"name":"Armature"
		}
	],
	"accessors":[
		{
			"bufferView":0,
			"componentType":5126,
			"count":750,
			"max":[
				0.4621059000492096,
				1.6847894191741943,
				0.5850691795349121
			],
			"min":[
				-0.44741976261138916,
				-0.0023209317587316036,
				-0.5808687806129456
			],
			"type":"VEC3"
		},
		{
			"bufferView":1,
			"componentType":5126,
			"count":750,
			"type":"VEC3"
		},
		{
			"bufferView":2,
			"componentType":5126,
			"count":750,
			"type":"VEC2"
		},
		{
			"bufferView":3,
			"componentType":5121,
			"count":750,
			"type":"VEC4"
		},
		{
			"bufferView":4,
			"componentType":5126,
			"count":750,
			"type":"VEC4"
		},
		{
			"bufferView":5,
			"componentType":5123,
			"count":3282,
			"type":"SCALAR"
		},
		{
			"bufferView":6,
			"componentType":5126,
			"count":10,
			"type":"MAT4"
		},
		{
			"bufferView":7,
			"componentType":5126,
			"count":20,
			"max":[
				0.8333333333333334
			],
			"min":[
				0.041666666666666664
			],
			"type":"SCALAR"
		},
		{
			"bufferView":8,
			"componentType":5126,
			"count":20,
			"type":"VEC3"
		},
		{
			"bufferView":9,
			"componentType":5126,
			"count":20,
			"type":"VEC4"
		},
		{
			"bufferView":10,
			"componentType":5126,
			"count":2,
			"max":[
				0.8333333333333334
			],
			"min":[
				0.041666666666666664
			],
			"type":"SCALAR"
		},
		{
			"bufferView":11,
			"componentType":5126,
			"count":2,
			"type":"VEC3"
		},
		{
			"bufferView":12,
			"componentType":5126,
			"count":2,
			"type":"VEC3"
		},
		{
			"bufferView":13,
			"componentType":5126,
			"count":20,
			"type":"VEC4"
		},
		{
			"bufferView":14,
			"componentType":5126,
			"count":2,
			"type":"VEC3"
		},
		{
			"bufferView":15,
			"componentType":5126,
			"count":2,
			"type":"VEC3"
		},
		{
			"bufferView":16,
			"componentType":5126,
			"count":20,
			"type":"VEC4"
		},
		{
			"bufferView":17,
			"componentType":5126,
			"count":2,
			"type":"VEC3"
		},
		{
			"bufferView":18,
			"componentType":5126,
			"count":2,
			"type":"VEC3"
		},
		{
			"bufferView":19,
			"componentType":5126,
			"count":20,
			"type":"VEC4"
		},
		{
			"bufferView":20,
			"componentType":5126,
			"count":2,
			"type":"VEC3"
		},
		{
			"bufferView":21,
			"componentType":5126,
			"count":2,
			"type":"VEC3"
		},
		{
			"bufferView":22,
			"componentType":5126,
			"count":20,
			"type":"VEC4"
		},
		{
			"bufferView":23,
			"componentType":5126,
			"count":2,
			"type":"VEC3"
		},
		{
			"bufferView":24,
			"componentType":5126,
			"count":2,
			"type":"VEC3"
		},
		{
			"bufferView":25,
			"componentType":5126,
			"count":20,
			"type":"VEC4"
		},
		{
			"bufferView":26,
			"componentType":5126,
			"count":2,
			"type":"VEC3"
		},
		{
			"bufferView":27,
			"componentType":5126,
			"count":2,
			"type":"VEC3"
		},
		{
			"bufferView":28,
			"componentType":5126,
			"count":2,
			"type":"VEC4"
		},
		{
			"bufferView":29,
			"componentType":5126,
			"count":2,
			"type":"VEC3"
		},
		{
			"bufferView":30,
			"componentType":5126,
			"count":2,
			"type":"VEC3"
		},
		{
			"bufferView":31,
			"componentType":5126,
			"count":20,
			"type":"VEC4"
		},
		{
			"bufferView":32,
			"componentType":5126,
			"count":2,
			"type":"VEC3"
		},
		{
			"bufferView":33,
			"componentType":5126,
			"count":2,
			"type":"VEC3"
		},
		{
			"bufferView":34,
			"componentType":5126,
			"count":20,
			"type":"VEC4"
		},
		{
			"bufferView":35,
			"componentType":5126,
			"count":2,
			"type":"VEC3"
		},
		{
			"bufferView":36,
			"componentType":5126,
			"count":2,
			"type":"VEC3"
		},
		{
			"bufferView":37,
			"componentType":5126,
			"count":2,
			"type":"VEC4"
		},
		{
			"bufferView":38,
			"componentType":5126,
			"count":2,
			"type":"VEC3"
		}
	],
	"bufferViews":[
		{
			"buffer":0,
			"byteLength":9000,
			"byteOffset":0,
			"target":34962
		},
		{
			"buffer":0,
			"byteLength":9000,
			"byteOffset":9000,
			"target":34962
		},
		{
			"buffer":0,
			"byteLength":6000,
			"byteOffset":18000,
			"target":34962
		},
		{
			"buffer":0,
			"byteLength":3000,
			"byteOffset":24000,
			"target":34962
		},
		{
			"buffer":0,
			"byteLength":12000,
			"byteOffset":27000,
			"target":34962
		},
		{
			"buffer":0,
			"byteLength":6564,
			"byteOffset":39000,
			"target":34963
		},
		{
			"buffer":0,
			"byteLength":640,
			"byteOffset":45564
		},
		{
			"buffer":0,
			"byteLength":80,
			"byteOffset":46204
		},
		{
			"buffer":0,
			"byteLength":240,
			"byteOffset":46284
		},
		{
			"buffer":0,
			"byteLength":320,
			"byteOffset":46524
		},
		{
			"buffer":0,
			"byteLength":8,
			"byteOffset":46844
		},
		{
			"buffer":0,
			"byteLength":24,
			"byteOffset":46852
		},
		{
			"buffer":0,
			"byteLength":24,
			"byteOffset":46876
		},
		{
			"buffer":0,
			"byteLength":320,
			"byteOffset":46900
		},
		{
			"buffer":0,
			"byteLength":24,
			"byteOffset":47220
		},
		{
			"buffer":0,
			"byteLength":24,
			"byteOffset":47244
		},
		{
			"buffer":0,
			"byteLength":320,
			"byteOffset":47268
		},
		{
			"buffer":0,
			"byteLength":24,
			"byteOffset":47588
		},
		{
			"buffer":0,
			"byteLength":24,
			"byteOffset":47612
		},
		{
			"buffer":0,
			"byteLength":320,
			"byteOffset":47636
		},
		{
			"buffer":0,
			"byteLength":24,
			"byteOffset":47956
		},
		{
			"buffer":0,
			"byteLength":24,
			"byteOffset":47980
		},
		{
			"buffer":0,
			"byteLength":320,
			"byteOffset":48004
		},
		{
			"buffer":0,
			"byteLength":24,
			"byteOffset":48324
		},
		{
			"buffer":0,
			"byteLength":24,
			"byteOffset":48348
		},
		{
			"buffer":0,
			"byteLength":320,
			"byteOffset":48372
		},
		{
			"buffer":0,
			"byteLength":24,
			"byteOffset":48692
		},
		{
			"buffer":0,
			"byteLength":24,
			"byteOffset":48716
		},
		{
			"buffer":0,
			"byteLength":32,
			"byteOffset":48740
		},
		{
			"buffer":0,
			"byteLength":24,
			"byteOffset":48772
		},
		{
			"buffer":0,
			"byteLength":24,
			"byteOffset":48796
		},
		{
			"buffer":0,
			"byteLength":320,
			"byteOffset":48820
		},
		{
			"buffer":0,
			"byteLength":24,
			"byteOffset":49140
		},
		{
			"buffer":0,
			"byteLength":24,
			"byteOffset":49164
		},
		{
			"buffer":0,
			"byteLength":320,
			"byteOffset":49188
		},
		{
			"buffer":0,
			"byteLength":24,
			"byteOffset":49508
		},
		{
			"buffer":0,
			"byteLength":24,
			"byteOffset":49532
		},
		{
			"buffer":0,
			"byteLength":32,
			"byteOffset":49556
		},
		{
			"buffer":0,
			"byteLength":24,
			"byteOffset":49588
		}
	],
	"samplers":[
		{
			"magFilter":9729,
			"minFilter":9987
		}
	],
	"buffers":[
		{
			"byteLength":49612,
			"uri":"BunnyAnimated.bin"
		}
	]
}
